HIERARCHY
ROOT Pelvis
{
	OFFSET 0.000000 0.000000 0.000000
	CHANNELS 6 Xposition Yposition Zposition Xrotation Yrotation Zrotation
	JOINT LeftUpLeg_virtual
	{
		OFFSET 0.000000 0.000000 0.000000
		CHANNELS 3 Xrotation Yrotation Zrotation
		JOINT LeftUpLeg
		{
			OFFSET 18.735201 -5.666702 -4.541200
			CHANNELS 3 Xrotation Yrotation Zrotation
			JOINT LeftLeg
			{
				OFFSET -0.021200 -31.938179 0.493100
				CHANNELS 3 Xrotation Yrotation Zrotation
				JOINT LeftFoot
				{
					OFFSET 0.021200 -31.938179 -4.336299
					CHANNELS 3 Xrotation Yrotation Zrotation
					JOINT LeftToeBase
					{
						OFFSET 0.943001 -26.722000 15.023500
						CHANNELS 3 Xrotation Yrotation Zrotation
						End Site
						{
							OFFSET 0 0 0
						}
					}
				}
			}
		}
	}
	JOINT RightUpLeg_virtual
	{
		OFFSET 0.000000 0.000000 0.000000
		CHANNELS 3 Xrotation Yrotation Zrotation
		JOINT RightUpLeg
		{
			OFFSET -18.735201 -5.666702 -4.541200
			CHANNELS 3 Xrotation Yrotation Zrotation
			JOINT RightLeg
			{
				OFFSET 0.018946 -31.938133 0.493100
				CHANNELS 3 Xrotation Yrotation Zrotation
				JOINT RightFoot
				{
					OFFSET -0.018946 -31.938126 -4.336299
					CHANNELS 3 Xrotation Yrotation Zrotation
					JOINT RightToeBase
					{
						OFFSET -0.943001 -26.722004 15.023500
						CHANNELS 3 Xrotation Yrotation Zrotation
						End Site
						{
							OFFSET 0 0 0
						}
					}
				}
			}
		}
	}
	JOINT Hips_virtual
	{
		OFFSET 0.000000 0.000000 0.000000
		CHANNELS 3 Xrotation Yrotation Zrotation
		JOINT Hips
		{
			OFFSET -0.000000 -0.000000 -0.000000
			CHANNELS 3 Xrotation Yrotation Zrotation
			JOINT Spine
			{
				OFFSET 0.000000 10.199997 -0.299500
				CHANNELS 3 Xrotation Yrotation Zrotation
				JOINT Spine1
				{
					OFFSET 0.000000 11.900002 -1.516600
					CHANNELS 3 Xrotation Yrotation Zrotation
					JOINT Spine2
					{
						OFFSET 0.000000 13.600006 -2.842500
						CHANNELS 3 Xrotation Yrotation Zrotation
						JOINT Neck_virtual
						{
							OFFSET 0.000000 0.000000 0.000000
							CHANNELS 3 Xrotation Yrotation Zrotation
							JOINT Neck
							{
								OFFSET 0.000000 9.624100 -2.890100
								CHANNELS 3 Xrotation Yrotation Zrotation
								JOINT Head
								{
									OFFSET 0.000000 14.068802 -1.351900
									CHANNELS 3 Xrotation Yrotation Zrotation
									End Site
									{
										OFFSET 0 0 0
									}
								}
							}
						}
						JOINT LeftShoulder_virtual
						{
							OFFSET 0.000000 0.000000 0.000000
							CHANNELS 3 Xrotation Yrotation Zrotation
							JOINT LeftShoulder
							{
								OFFSET 15.263000 10.923401 -0.547700
								CHANNELS 3 Xrotation Yrotation Zrotation
								JOINT LeftArm
								{
									OFFSET 25.438599 -2.830597 -13.032500
									CHANNELS 3 Xrotation Yrotation Zrotation
									JOINT LeftForeArm
									{
										OFFSET 29.960503 0.000000 0.000000
										CHANNELS 3 Xrotation Yrotation Zrotation
										JOINT LeftHand
										{
											OFFSET 27.849251 0.000000 0.000000
											CHANNELS 3 Xrotation Yrotation Zrotation
											End Site
											{
												OFFSET 0 0 0
											}
										}
									}
								}
							}
						}
						JOINT RightShoulder_virtual
						{
							OFFSET 0.000000 0.000000 0.000000
							CHANNELS 3 Xrotation Yrotation Zrotation
							JOINT RightShoulder
							{
								OFFSET -15.263000 10.923401 -0.547700
								CHANNELS 3 Xrotation Yrotation Zrotation
								JOINT RightArm
								{
									OFFSET -25.438599 -2.830597 -13.032500
									CHANNELS 3 Xrotation Yrotation Zrotation
									JOINT RightForeArm
									{
										OFFSET -29.960503 0.000000 0.000000
										CHANNELS 3 Xrotation Yrotation Zrotation
										JOINT RightHand
										{
											OFFSET -27.849251 0.000000 0.000000
											CHANNELS 3 Xrotation Yrotation Zrotation
											End Site
											{
												OFFSET 0 0 0
											}
										}
									}
								}
							}
						}
					}
				}
			}
		}
	}
}
MOTION
Frames: 7
Frame Time: 0.03333333
-9.637705 193.090485 -2.288670 0.000000 0.000000 0.000000 16.323845 -29.996668 6.236294 -72.046591 7.505341 42.310416 79.773816 -2.783221 -25.105433 -17.859515 17.136067 -43.531043 0.000000 0.000000 0.000000 16.084660 -28.546800 5.555722 -94.148905 19.104167 -10.998225 118.104216 -18.337398 31.343830 -15.608697 -26.415094 38.825374 0.000000 0.000000 0.000000 16.313748 -30.443062 7.162409 -0.973500 0.016039 0.036014 1.681511 -9.122133 -5.354185 8.490863 -3.541588 1.383742 0.000000 0.000000 0.000000 -1.814509 -2.426032 1.942020 -1.531159 -4.382747 4.801013 0.000000 0.000000 0.000000 1.137407 -2.929594 1.274091 -5.536753 -9.263681 25.134565 -45.351097 15.615932 -8.999940 127.722816 -56.041067 165.674120 0.000000 0.000000 0.000000 1.755561 -0.681886 2.393844 9.657615 29.533540 -6.619671 -46.916863 4.448757 11.337232 97.736046 62.524904 -147.415631 0.000000 0.000000 0.000000 
-9.170006 192.648315 -3.865833 0.000000 0.000000 0.000000 15.222350 -30.535894 7.044022 -78.055067 4.061905 37.954531 80.920256 -1.124396 -26.180180 -18.443807 20.881843 -39.523935 0.000000 0.000000 0.000000 15.357573 -29.471894 6.267983 -98.864898 15.566536 -13.271347 110.024171 -18.870925 32.170054 -11.353207 -24.336113 35.418530 0.000000 0.000000 0.000000 15.674871 -30.337183 7.961366 -1.014550 0.070301 -0.039038 3.887884 -9.044441 -4.229796 10.753172 -4.538130 1.808558 0.000000 0.000000 0.000000 1.153570 -3.495305 2.349706 -0.254813 -4.574004 4.201820 0.000000 0.000000 0.000000 3.248191 -4.181785 1.234940 -4.026884 -12.321482 27.310277 -47.763533 21.756815 -3.423608 128.702388 -58.564685 168.804861 0.000000 0.000000 0.000000 4.099897 -1.769128 2.935685 10.768558 30.732914 -9.945438 -53.007992 12.522673 8.879640 90.902516 65.037696 -142.690438 0.000000 0.000000 0.000000 
-8.813362 191.509827 -5.566456 0.000000 0.000000 0.000000 13.668016 -30.481679 7.341645 -81.542917 0.931027 32.141340 75.427084 2.701249 -27.229068 -17.271098 24.718984 -32.989834 0.000000 0.000000 0.000000 14.085698 -29.726066 6.459763 -99.133864 10.318401 -15.785298 96.569955 -22.728346 33.748859 -9.128882 -23.257877 30.394663 0.000000 0.000000 0.000000 14.533978 -29.794299 8.067030 -1.010064 0.091166 -0.196372 5.753672 -8.752315 -3.060129 12.781902 -5.074121 2.048242 0.000000 0.000000 0.000000 4.517839 -4.038870 2.560797 1.004672 -4.753246 3.552591 0.000000 0.000000 0.000000 5.468918 -4.946604 1.085008 -2.269861 -15.635587 28.923785 -52.842438 22.561016 2.680210 130.503263 -60.806504 172.347994 0.000000 0.000000 0.000000 6.405622 -2.312939 3.237455 12.432167 31.247740 -14.259949 -59.806632 20.981706 8.144762 72.100816 67.970354 -125.529246 0.000000 0.000000 0.000000 
-8.771149 189.498505 -7.166134 0.000000 0.000000 0.000000 11.781180 -29.738965 7.166120 -81.790477 -1.814860 25.515693 64.458654 7.798455 -27.215987 -16.147214 28.245083 -25.689585 0.000000 0.000000 0.000000 12.245632 -29.141272 6.223565 -96.256005 4.308488 -18.194125 79.149462 -28.712049 33.918941 -7.508036 -21.773026 26.511369 0.000000 0.000000 0.000000 12.765611 -28.865517 7.749860 -0.953449 0.086204 -0.306607 7.068772 -8.191160 -2.245983 14.423976 -4.923991 1.917222 0.000000 0.000000 0.000000 8.025843 -3.947906 2.486911 2.163128 -4.897797 2.886659 0.000000 0.000000 0.000000 7.549542 -4.963391 0.849589 -0.515975 -18.064121 30.665490 -58.777726 18.487765 8.241367 130.486611 -64.911857 173.813971 0.000000 0.000000 0.000000 8.571903 -2.237869 3.158948 14.388565 30.811878 -19.090807 -65.259937 26.098165 8.237860 42.850937 67.314882 -97.174939 0.000000 0.000000 0.000000 
-9.087469 186.701141 -8.128708 0.000000 0.000000 0.000000 9.720826 -28.469805 6.761685 -78.591128 -4.223176 19.459054 50.047911 12.166992 -25.649273 -16.887474 30.140023 -20.498789 0.000000 0.000000 0.000000 9.824987 -27.955107 5.772667 -92.383520 -0.322576 -19.558306 61.445611 -33.511572 31.035539 -2.115504 -18.025066 26.300388 0.000000 0.000000 0.000000 10.377632 -27.796981 7.368522 -0.901428 0.057515 -0.303653 7.870641 -7.465311 -1.892635 15.619519 -4.153239 1.373912 0.000000 0.000000 0.000000 11.216935 -3.368252 2.163068 3.176717 -4.955710 2.223131 0.000000 0.000000 0.000000 9.279490 -4.345545 0.577831 1.032020 -19.080622 32.856885 -64.025353 12.624006 11.729681 125.255260 -72.109128 169.961430 0.000000 0.000000 0.000000 10.374286 -1.704215 2.683291 16.375262 29.281578 -23.862658 -67.491975 26.418921 7.196194 20.779198 61.913274 -75.168616 0.000000 0.000000 0.000000 
-9.553089 182.838470 -8.374611 0.000000 0.000000 0.000000 7.356112 -27.370277 6.359823 -73.788781 -6.070892 15.545463 36.940897 14.220306 -23.835149 -19.823803 30.111401 -17.379124 0.000000 0.000000 0.000000 7.030215 -26.583622 5.356712 -89.119912 -2.287387 -19.775566 50.397049 -34.279224 27.514391 4.638242 -12.145829 27.997005 0.000000 0.000000 0.000000 7.507136 -27.048698 7.074775 -0.927420 0.022590 -0.198096 8.614736 -6.758252 -1.707031 16.400993 -3.136319 0.533825 0.000000 0.000000 0.000000 13.643566 -2.619182 1.692313 3.945244 -4.906756 1.665042 0.000000 0.000000 0.000000 10.591071 -3.338248 0.266502 2.198811 -18.584999 35.486501 -67.571635 8.336258 13.040845 106.185502 -80.180929 151.886154 0.000000 0.000000 0.000000 11.490364 -0.987235 1.925599 18.023148 26.481690 -28.324827 -67.092784 22.891347 4.546545 11.362748 56.702540 -64.545117 0.000000 0.000000 0.000000 
-10.227385 178.195358 -7.597015 0.000000 0.000000 0.000000 4.422184 -26.998843 5.902151 -70.010819 -6.658720 14.713874 30.959864 14.298432 -24.005067 -23.755202 29.318573 -14.668951 0.000000 0.000000 0.000000 3.904413 -25.831538 4.975491 -87.706691 -1.648314 -19.747675 50.920023 -31.970346 26.922903 6.659378 -7.461469 28.482712 0.000000 0.000000 0.000000 4.156634 -26.816347 6.702841 -0.929378 -0.003901 -0.085026 9.788733 -6.257296 -1.320785 16.837289 -2.203019 -0.366060 0.000000 0.000000 0.000000 15.009114 -1.887281 1.089974 4.364551 -4.764290 1.259721 0.000000 0.000000 0.000000 11.488412 -2.345741 -0.021575 3.078912 -17.221880 38.574491 -69.110128 6.849108 12.463679 44.723085 -83.545849 90.882524 0.000000 0.000000 0.000000 12.044089 -0.359783 1.044279 19.207767 22.554063 -32.860904 -66.100173 17.541611 1.532301 8.713394 53.666705 -59.584091 0.000000 0.000000 0.000000 
